<?xml version="1.0" encoding="utf-8"?>
<!-- Generator: Adobe Illustrator 16.0.3, SVG Export Plug-In . SVG Version: 6.00 Build 0)  -->
<!DOCTYPE svg PUBLIC "-//W3C//DTD SVG 1.1//EN" "http://www.w3.org/Graphics/SVG/1.1/DTD/svg11.dtd">
<svg version="1.1" id="Layer_1" xmlns="http://www.w3.org/2000/svg" xmlns:xlink="http://www.w3.org/1999/xlink" x="0px" y="0px"
	 width="50px" height="50px" viewBox="0 0 50 50" enable-background="new 0 0 50 50" xml:space="preserve">
<path fill="#FFFFFF" d="M10,0C4.488,0,0,4.488,0,10v30c0,5.512,4.488,10,10,10h30c5.512,0,10-4.488,10-10V10c0-5.512-4.488-10-10-10
	H10z M10,2h30c4.432,0,8,3.568,8,8v30c0,4.432-3.568,8-8,8h-6V29h4h0.844L39,28.156l1-6L40.188,21H39h-5v-2
	c0-0.558,0.063-0.597,0.25-0.719S35.006,18,36,18h3h1v-1v-5v-0.719l-0.688-0.219c0,0-3.18-1.063-6.313-1.063
	c-2.914,0-5.068,0.974-6.344,2.656C25.381,14.339,25,16.549,25,19v2h-2h-1v1v6v1h1h2v19H10c-4.432,0-8-3.568-8-8V10
	C2,5.568,5.568,2,10,2z M33,12c2.173,0,4.177,0.515,5,0.75V16h-2c-1.15,0-2.067,0.089-2.844,0.594S32,18.062,32,19v3v1h1h4.813
	l-0.688,4H33h-1v1v20h-5V28v-1h-1h-2v-4h2h1v-1v-3c0-2.226,0.38-4.008,1.25-5.156S30.495,12,33,12z"/>
</svg>
