<?xml version="1.0" encoding="utf-8"?>
<!-- Generator: Adobe Illustrator 16.0.3, SVG Export Plug-In . SVG Version: 6.00 Build 0)  -->
<!DOCTYPE svg PUBLIC "-//W3C//DTD SVG 1.1//EN" "http://www.w3.org/Graphics/SVG/1.1/DTD/svg11.dtd">
<svg version="1.1" id="Layer_1" xmlns="http://www.w3.org/2000/svg" xmlns:xlink="http://www.w3.org/1999/xlink" x="0px" y="0px"
	 width="50px" height="50px" viewBox="0 0 50 50" enable-background="new 0 0 50 50" xml:space="preserve">
<path fill="#FFFFFF" d="M10,0C4.488,0,0,4.488,0,10v30c0,5.512,4.488,10,10,10h30c5.512,0,10-4.488,10-10V10c0-5.512-4.488-10-10-10
	H10z M10,2h30c4.432,0,8,3.568,8,8v30c0,4.432-3.568,8-8,8H10c-4.432,0-8-3.568-8-8V10C2,5.568,5.568,2,10,2z M40.5,5
	C39.13,5,38,6.13,38,7.5v3c0,1.37,1.13,2.5,2.5,2.5h3c1.37,0,2.5-1.13,2.5-2.5v-3C46,6.13,44.87,5,43.5,5H40.5z M40.5,7h3
	C43.782,7,44,7.218,44,7.5v3c0,0.282-0.218,0.5-0.5,0.5h-3c-0.282,0-0.5-0.218-0.5-0.5v-3C40,7.218,40.218,7,40.5,7z M25,10
	c-4.456,0-8.467,1.96-11.219,5.063c-0.13-0.049-0.268-0.07-0.406-0.063H5c-0.031-0.001-0.063-0.001-0.094,0
	C4.391,15.049,3.998,15.482,4,16v23.781C4,43.205,6.794,46,10.219,46h29.563C43.205,46,46,43.205,46,39.781V16c0-0.552-0.447-1-1-1
	h-8.438c-0.128-0.003-0.256,0.018-0.375,0.063C33.437,11.969,29.449,10,25,10z M25,12c7.177,0,13,5.823,13,13s-5.823,13-13,13
	s-13-5.823-13-13S17.823,12,25,12z M24.906,14c-0.032,0.009-0.063,0.02-0.094,0.031c-0.063,0.004-0.126,0.015-0.188,0.031
	c-0.011,0.01-0.021,0.021-0.031,0.031C18.73,14.321,14,19.08,14,25c0,6.064,4.938,11,11,11s11-4.936,11-11
	c0-5.898-4.697-10.646-10.531-10.906c-0.034-0.001-0.06-0.03-0.094-0.031c-0.1-0.038-0.206-0.059-0.313-0.063
	c-0.021,0-0.041,0-0.063,0C24.969,13.999,24.938,13.999,24.906,14z M24.938,16c0.021,0,0.042,0,0.063,0c4.981,0,9,4.017,9,9
	s-4.019,9-9,9s-9-4.017-9-9C16,20.038,19.985,16.034,24.938,16z M6,17h6.344C10.868,19.321,10,22.056,10,25c0,8.262,6.738,15,15,15
	s15-6.738,15-15c0-2.944-0.868-5.679-2.344-8H44v22.781C44,42.121,42.121,44,39.781,44H10.219C7.879,44,6,42.121,6,39.781V17z"/>
</svg>
