<?xml version="1.0" encoding="utf-8"?>
<!-- Generator: Adobe Illustrator 16.0.3, SVG Export Plug-In . SVG Version: 6.00 Build 0)  -->
<!DOCTYPE svg PUBLIC "-//W3C//DTD SVG 1.1//EN" "http://www.w3.org/Graphics/SVG/1.1/DTD/svg11.dtd">
<svg version="1.1" id="Layer_1" xmlns="http://www.w3.org/2000/svg" xmlns:xlink="http://www.w3.org/1999/xlink" x="0px" y="0px"
	 width="50px" height="50px" viewBox="0 0 50 50" enable-background="new 0 0 50 50" xml:space="preserve">
<path fill="#FFFFFF" d="M10.406,0C4.971,0,0.497,4.235,0.063,9.563c-0.011,0.01-0.021,0.021-0.031,0.031
	C-0.06,9.812-0.071,10.056,0,10.281c0,0.01,0,0.021,0,0.031c0,0.031,0,0.063,0,0.094v29.188C0,45.31,4.687,50,10.406,50h29.188
	C45.314,50,50,45.311,50,39.594v-1.656V10.406c0-0.063,0.001-0.125,0-0.188c0-0.01,0-0.021,0-0.031
	c0.032-0.167,0.021-0.339-0.031-0.5c-0.009-0.032-0.02-0.063-0.031-0.094C49.519,4.252,45.039,0,39.594,0H10.406z M10.406,2h29.188
	c4.146,0,7.604,3.043,8.281,7H2.125C2.802,5.043,6.26,2,10.406,2z M2,11h46v26.938v1.656C48,44.219,44.224,48,39.594,48H10.406
	C5.778,48,2,44.218,2,39.594V11z M18.563,16c-1.944,0-4.42,0.301-6.469,2.031c-1.557,1.349-2.313,3.248-2.313,4.938
	c0,2.864,2.177,5.75,6,5.75c0.36,0,0.755-0.027,1.156-0.063c-0.184,0.445-0.375,0.822-0.375,1.438c0,1.143,0.587,1.813,1.094,2.469
	c-1.627,0.115-4.677,0.324-6.906,1.719c-2.134,1.287-2.781,3.15-2.781,4.469c0,2.717,2.519,5.25,7.75,5.25
	c6.203,0,9.5-3.486,9.5-6.938c0-2.527-1.445-3.768-3.031-5.125l-1.281-1.031c-0.397-0.324-0.969-0.787-0.969-1.594
	c0-0.805,0.564-1.332,1.031-1.813C22.485,26.295,24,24.965,24,22.25c0-2.793-1.733-4.212-2.563-5.031h2.219L25.969,16H18.563z
	 M16.281,17.25c2.993,0,4.531,4.1,4.531,6.75c0,0.654-0.052,1.809-0.875,2.656c-0.581,0.585-1.56,1.031-2.469,1.031
	c-3.097,0-4.531-4.07-4.531-6.531c0-0.952,0.201-1.927,0.813-2.688C14.332,17.726,15.344,17.25,16.281,17.25z M34,24v5h-5v4h5v5h4
	v-5h5v-4h-5v-5H34z M18.031,33.625c0.364,0,0.555-0.004,0.844,0.031c2.739,1.98,3.938,2.971,3.938,4.844
	c-0.001,2.273-1.849,3.969-5.313,3.969c-3.858,0-6.344-1.895-6.344-4.5s2.298-3.485,3.094-3.781
	C15.767,33.672,17.707,33.625,18.031,33.625z"/>
</svg>
